<?xml version="1.0" encoding="UTF-8"?>
<svg xmlns="http://www.w3.org/2000/svg" xmlns:xlink="http://www.w3.org/1999/xlink" width="50px" height="50px" viewBox="0 0 50 50" version="1.1">
<g id="surface1">
<path style=" stroke:none;fill-rule:evenodd;fill:rgb(0%,0%,0%);fill-opacity:1;" d="M 39.273438 13.4375 C 40.023438 12.6875 40.023438 11.476562 39.273438 10.726562 C 38.523438 9.980469 37.3125 9.980469 36.5625 10.726562 L 25 22.289062 L 13.4375 10.726562 C 12.6875 9.980469 11.476562 9.980469 10.726562 10.726562 C 9.980469 11.476562 9.980469 12.6875 10.726562 13.4375 L 22.289062 25 L 10.726562 36.5625 C 9.980469 37.3125 9.980469 38.523438 10.726562 39.273438 C 11.476562 40.019531 12.6875 40.019531 13.4375 39.273438 L 25 27.710938 L 36.5625 39.273438 C 37.3125 40.019531 38.523438 40.019531 39.273438 39.273438 C 40.023438 38.523438 40.023438 37.3125 39.273438 36.5625 L 27.710938 25 Z M 39.273438 13.4375 "/>
</g>
</svg>
