<?xml version="1.0" encoding="UTF-8"?>
<svg xmlns="http://www.w3.org/2000/svg" xmlns:xlink="http://www.w3.org/1999/xlink" width="100px" height="100px" viewBox="0 0 100 100" version="1.1">
<g id="surface1">
<path style=" stroke:none;fill-rule:evenodd;fill:rgb(0%,0%,0%);fill-opacity:1;" d="M 78.542969 26.878906 C 80.042969 25.378906 80.042969 22.953125 78.542969 21.457031 C 77.046875 19.960938 74.621094 19.960938 73.125 21.457031 L 50 44.578125 L 26.878906 21.457031 C 25.378906 19.960938 22.953125 19.960938 21.457031 21.457031 C 19.960938 22.953125 19.960938 25.378906 21.457031 26.878906 L 44.578125 50 L 21.457031 73.121094 C 19.960938 74.621094 19.960938 77.046875 21.457031 78.542969 C 22.953125 80.039062 25.378906 80.039062 26.878906 78.542969 L 50 55.421875 L 73.125 78.542969 C 74.621094 80.039062 77.046875 80.039062 78.542969 78.542969 C 80.042969 77.046875 80.042969 74.621094 78.542969 73.121094 L 55.421875 50 Z M 78.542969 26.878906 "/>
</g>
</svg>
