<?xml version="1.0" encoding="UTF-8"?>
<svg xmlns="http://www.w3.org/2000/svg" xmlns:xlink="http://www.w3.org/1999/xlink" width="40px" height="40px" viewBox="0 0 40 40" version="1.1">
<g id="surface1">
<path style="fill:none;stroke-width:3;stroke-linecap:round;stroke-linejoin:miter;stroke:rgb(0%,0%,0%);stroke-opacity:1;stroke-miterlimit:4;" d="M 37.4875 19.8625 C 37.4875 19.7875 37.85 19.5625 39 19.5625 L 42.7625 19.5625 C 43.35 19.56875 43.925 19.3375 44.34375 18.91875 C 44.76875 18.5 45 17.93125 45 17.3375 L 45 10.78125 C 45.0125 10.1875 44.7875 9.61875 44.375 9.19375 C 43.9625 8.76875 43.4 8.525 42.8125 8.51875 L 37.2125 8.51875 C 34.06875 8.4125 31.025 9.6 28.78125 11.8 C 26.6125 14.14375 25.4625 17.25 25.5875 20.4375 L 25.5875 26.3875 L 21.2375 26.3875 C 20.00625 26.3875 19.00625 27.38125 19 28.6125 L 19 35.68125 C 19 36.9 19.9875 37.8875 21.2125 37.8875 L 25.4875 37.8875 L 25.4875 53.2375 C 25.475 54.4625 26.45 55.46875 27.66875 55.4875 L 35.01875 55.4875 C 35.60625 55.4875 36.16875 55.25625 36.5875 54.8375 C 37 54.425 37.23125 53.85625 37.23125 53.26875 L 37.23125 37.9375 L 42.4625 37.9375 C 43.68125 37.9375 44.675 36.94375 44.68125 35.71875 L 44.68125 28.6375 C 44.68125 28.05 44.44375 27.4875 44.03125 27.075 C 43.6125 26.65625 43.05 26.425 42.4625 26.43125 L 37.2625 26.43125 L 37.2625 21.21875 C 37.20625 20.75625 37.28125 20.28125 37.4875 19.8625 Z M 37.4875 19.8625 " transform="matrix(0.625,0,0,0.625,0,0)"/>
</g>
</svg>
