<?xml version="1.0" encoding="UTF-8"?>
<svg xmlns="http://www.w3.org/2000/svg" xmlns:xlink="http://www.w3.org/1999/xlink" width="40px" height="40px" viewBox="0 0 40 40" version="1.1">
<g id="surface1">
<path style=" stroke:none;fill-rule:evenodd;fill:rgb(9.411765%,8.627451%,8.627451%);fill-opacity:1;" d="M 20 4.785156 C 11.382812 4.785156 4.398438 11.769531 4.398438 20.386719 C 4.398438 27.277344 8.867188 33.125 15.070312 35.1875 C 15.847656 35.332031 16.132812 34.851562 16.132812 34.4375 C 16.132812 34.066406 16.121094 33.085938 16.113281 31.78125 C 11.773438 32.726562 10.859375 29.691406 10.859375 29.691406 C 10.148438 27.890625 9.125 27.410156 9.125 27.410156 C 7.707031 26.441406 9.234375 26.460938 9.234375 26.460938 C 10.796875 26.574219 11.621094 28.070312 11.621094 28.070312 C 13.011719 30.453125 15.273438 29.761719 16.164062 29.367188 C 16.304688 28.355469 16.707031 27.671875 17.152344 27.28125 C 13.6875 26.886719 10.046875 25.546875 10.046875 19.570312 C 10.046875 17.867188 10.65625 16.472656 11.652344 15.382812 C 11.492188 14.988281 10.957031 13.402344 11.804688 11.253906 C 11.804688 11.253906 13.117188 10.835938 16.097656 12.855469 C 17.339844 12.507812 18.675781 12.335938 20 12.328125 C 21.328125 12.335938 22.660156 12.507812 23.90625 12.855469 C 26.886719 10.835938 28.191406 11.253906 28.191406 11.253906 C 29.042969 13.402344 28.507812 14.988281 28.347656 15.382812 C 29.347656 16.472656 29.953125 17.867188 29.953125 19.570312 C 29.953125 25.5625 26.304688 26.882812 22.828125 27.265625 C 23.390625 27.75 23.886719 28.703125 23.886719 30.15625 C 23.886719 32.242188 23.871094 33.925781 23.871094 34.4375 C 23.871094 34.855469 24.148438 35.339844 24.941406 35.183594 C 31.132812 33.121094 35.601562 27.277344 35.601562 20.386719 C 35.601562 11.769531 28.617188 4.785156 20 4.785156 Z M 20 4.785156 "/>
</g>
</svg>
