<?xml version="1.0" encoding="UTF-8"?>
<svg xmlns="http://www.w3.org/2000/svg" xmlns:xlink="http://www.w3.org/1999/xlink" width="40px" height="40px" viewBox="0 0 40 40" version="1.1">
<g id="surface1">
<path style=" stroke:none;fill-rule:nonzero;fill:rgb(0%,0%,0%);fill-opacity:1;" d="M 19.960938 0.15625 C 25.351562 0.15625 26.015625 0.195312 28.125 0.273438 C 30.195312 0.351562 31.640625 0.703125 32.929688 1.210938 C 34.257812 1.71875 35.351562 2.382812 36.445312 3.476562 C 37.539062 4.570312 38.203125 5.664062 38.710938 6.992188 C 39.21875 8.28125 39.570312 9.726562 39.648438 11.796875 C 39.726562 13.90625 39.765625 14.570312 39.765625 19.960938 C 39.765625 25.351562 39.726562 26.015625 39.648438 28.125 C 39.570312 30.195312 39.21875 31.640625 38.710938 32.929688 C 38.203125 34.257812 37.539062 35.351562 36.445312 36.445312 C 35.351562 37.539062 34.257812 38.203125 32.929688 38.710938 C 31.640625 39.21875 30.195312 39.570312 28.125 39.648438 C 26.015625 39.726562 25.351562 39.765625 19.960938 39.765625 C 14.570312 39.765625 13.90625 39.726562 11.796875 39.648438 C 9.726562 39.570312 8.28125 39.21875 6.992188 38.710938 C 5.664062 38.203125 4.570312 37.539062 3.476562 36.445312 C 2.382812 35.351562 1.71875 34.257812 1.210938 32.929688 C 0.703125 31.640625 0.351562 30.195312 0.273438 28.125 C 0.195312 26.015625 0.15625 25.351562 0.15625 19.960938 C 0.15625 14.570312 0.195312 13.90625 0.273438 11.796875 C 0.351562 9.726562 0.703125 8.28125 1.210938 6.992188 C 1.71875 5.664062 2.382812 4.570312 3.476562 3.476562 C 4.570312 2.382812 5.664062 1.71875 6.992188 1.210938 C 8.28125 0.703125 9.726562 0.351562 11.796875 0.273438 C 13.90625 0.195312 14.570312 0.15625 19.960938 0.15625 Z M 19.960938 2.734375 C 14.335938 2.734375 13.671875 2.773438 11.484375 2.851562 C 9.453125 2.929688 8.320312 3.320312 7.578125 3.59375 C 5.664062 4.375 4.375 5.664062 3.59375 7.578125 C 3.320312 8.320312 2.929688 9.453125 2.851562 11.484375 C 2.773438 13.671875 2.734375 14.335938 2.734375 19.960938 C 2.734375 25.585938 2.773438 26.25 2.851562 28.4375 C 2.929688 30.46875 3.320312 31.601562 3.59375 32.34375 C 4.375 34.257812 5.664062 35.546875 7.578125 36.328125 C 8.320312 36.601562 9.453125 36.992188 11.484375 37.070312 C 13.671875 37.148438 14.335938 37.1875 19.960938 37.1875 C 25.585938 37.1875 26.25 37.148438 28.4375 37.070312 C 30.46875 36.992188 31.601562 36.601562 32.34375 36.328125 C 34.257812 35.546875 35.546875 34.257812 36.328125 32.34375 C 36.601562 31.601562 36.992188 30.46875 37.070312 28.4375 C 37.148438 26.25 37.1875 25.585938 37.1875 19.960938 C 37.1875 14.335938 37.148438 13.671875 37.070312 11.484375 C 36.992188 9.453125 36.601562 8.320312 36.328125 7.578125 C 35.546875 5.664062 34.257812 4.375 32.34375 3.59375 C 31.601562 3.320312 30.46875 2.929688 28.4375 2.851562 C 26.25 2.773438 25.585938 2.734375 19.960938 2.734375 Z M 19.960938 27.890625 C 24.335938 27.890625 27.890625 24.335938 27.890625 19.960938 C 27.890625 15.585938 24.335938 12.03125 19.960938 12.03125 C 15.585938 12.03125 12.03125 15.585938 12.03125 19.960938 C 12.03125 24.335938 15.585938 27.890625 19.960938 27.890625 Z M 19.960938 9.804688 C 25.585938 9.804688 30.117188 14.335938 30.117188 19.960938 C 30.117188 25.585938 25.585938 30.117188 19.960938 30.117188 C 14.335938 30.117188 9.804688 25.585938 9.804688 19.960938 C 9.804688 14.335938 14.335938 9.804688 19.960938 9.804688 Z M 32.929688 9.414062 C 32.929688 10.742188 31.835938 11.757812 30.507812 11.757812 C 29.179688 11.757812 28.164062 10.742188 28.164062 9.414062 C 28.164062 8.085938 29.179688 6.992188 30.507812 6.992188 C 31.835938 6.992188 32.929688 8.085938 32.929688 9.414062 Z M 32.929688 9.414062 "/>
</g>
</svg>
