<?xml version="1.0" standalone="no"?>
<svg xmlns:xlink="http://www.w3.org/1999/xlink" id="wave" style="transform:rotate(0deg); transition: 0.3s" viewBox="0 0 1440 100" version="1.1" xmlns="http://www.w3.org/2000/svg"><defs><linearGradient id="sw-gradient-0" x1="0" x2="0" y1="1" y2="0"><stop stop-color="rgba(18, 79, 136, 1)" offset="0%"/><stop stop-color="rgba(18, 79, 136, 1)" offset="100%"/></linearGradient></defs><path style="transform:translate(0, 0px); opacity:1" fill="url(#sw-gradient-0)" d="M0,20L80,16.7C160,13,320,7,480,13.3C640,20,800,40,960,41.7C1120,43,1280,27,1440,26.7C1600,27,1760,43,1920,45C2080,47,2240,33,2400,28.3C2560,23,2720,27,2880,30C3040,33,3200,37,3360,46.7C3520,57,3680,73,3840,71.7C4000,70,4160,50,4320,38.3C4480,27,4640,23,4800,33.3C4960,43,5120,67,5280,70C5440,73,5600,57,5760,50C5920,43,6080,47,6240,46.7C6400,47,6560,43,6720,46.7C6880,50,7040,60,7200,58.3C7360,57,7520,43,7680,33.3C7840,23,8000,17,8160,18.3C8320,20,8480,30,8640,33.3C8800,37,8960,33,9120,35C9280,37,9440,43,9600,38.3C9760,33,9920,17,10080,23.3C10240,30,10400,60,10560,73.3C10720,87,10880,83,11040,71.7C11200,60,11360,40,11440,30L11520,20L11520,100L11440,100C11360,100,11200,100,11040,100C10880,100,10720,100,10560,100C10400,100,10240,100,10080,100C9920,100,9760,100,9600,100C9440,100,9280,100,9120,100C8960,100,8800,100,8640,100C8480,100,8320,100,8160,100C8000,100,7840,100,7680,100C7520,100,7360,100,7200,100C7040,100,6880,100,6720,100C6560,100,6400,100,6240,100C6080,100,5920,100,5760,100C5600,100,5440,100,5280,100C5120,100,4960,100,4800,100C4640,100,4480,100,4320,100C4160,100,4000,100,3840,100C3680,100,3520,100,3360,100C3200,100,3040,100,2880,100C2720,100,2560,100,2400,100C2240,100,2080,100,1920,100C1760,100,1600,100,1440,100C1280,100,1120,100,960,100C800,100,640,100,480,100C320,100,160,100,80,100L0,100Z"/></svg>