<?xml version="1.0" encoding="UTF-8"?>
<svg xmlns="http://www.w3.org/2000/svg" xmlns:xlink="http://www.w3.org/1999/xlink" width="40px" height="40px" viewBox="0 0 40 40" version="1.1">
<g id="surface1">
<path style=" stroke:none;fill-rule:nonzero;fill:rgb(0%,0%,0%);fill-opacity:1;" d="M 36.746094 7.410156 C 35.664062 6.628906 32.644531 5.59375 19.988281 5.59375 C 6.429688 5.59375 4.417969 6.785156 3.769531 7.171875 C 0.335938 9.238281 0.0078125 18.375 -0.0195312 20.230469 C 0.0195312 22.675781 0.414062 30.820312 3.769531 32.835938 C 4.414062 33.222656 6.414062 34.40625 19.988281 34.40625 C 32.652344 34.40625 35.667969 33.375 36.746094 32.597656 C 39.675781 30.492188 40.011719 23.234375 40.019531 20.199219 C 40.015625 17.753906 39.757812 9.578125 36.746094 7.410156 Z M 35.289062 30.570312 C 34.851562 30.882812 32.351562 31.90625 19.988281 31.90625 C 8.039062 31.90625 5.53125 30.980469 5.058594 30.691406 C 3.851562 29.96875 2.578125 26.128906 2.476562 20.222656 C 2.578125 14.332031 3.867188 10.03125 5.058594 9.316406 C 5.535156 9.03125 8.050781 8.09375 19.988281 8.09375 C 32.339844 8.09375 34.847656 9.125 35.289062 9.4375 C 36.359375 10.210938 37.503906 14.269531 37.519531 20.207031 C 37.503906 26.234375 36.351562 29.804688 35.289062 30.570312 Z M 28.140625 19.015625 L 16.894531 12.113281 C 16.507812 11.882812 16.027344 11.875 15.632812 12.097656 C 15.242188 12.320312 14.996094 12.734375 14.996094 13.183594 L 14.996094 26.992188 C 14.996094 27.683594 15.558594 28.242188 16.246094 28.242188 C 16.476562 28.242188 16.699219 28.179688 16.894531 28.0625 L 28.140625 21.15625 C 28.515625 20.929688 28.746094 20.527344 28.746094 20.085938 C 28.746094 19.648438 28.515625 19.242188 28.140625 19.015625 Z M 17.5 24.777344 L 17.5 15.398438 L 25.078125 20.085938 Z M 17.5 24.777344 "/>
</g>
</svg>
